Coordinates
version=1
nRows=27
nColumns=26
inDegrees=yes

Units are S.I. units (second, meters, Newtons, ...)
If the header above contains a line with 'inDegrees', this indicates whether rotational values are in degrees (yes) or radians (no).

endheader
time	pelvis_tilt	pelvis_list	pelvis_rotation	pelvis_tx	pelvis_ty	pelvis_tz	hip_flexion_r	hip_adduction_r	hip_rotation_r	knee_angle_r	knee_angle_r_beta	hip_flexion_l	hip_adduction_l	hip_rotation_l	knee_angle_l	knee_angle_l_beta	lumbar_extension	lumbar_bending	lumbar_rotation	ankle_angle_r	subtalar_angle_r	mtp_angle_r	ankle_angle_l	subtalar_angle_l	mtp_angle_l
      4.27333333	     -0.47541893	     -1.17299593	     -1.25413645	      0.31282170	      0.91088689	     -0.34142142	      6.63740803	      2.33584116	     -4.62548313	      5.21694530	      0.09105287	     16.96339431	    -12.24970251	    -17.58507791	     56.58188865	      0.98754025	    -11.51522481	      2.62953158	      0.85238539	      8.34911570	     -7.66977293	      0.00000000	      7.04641974	    -13.71181108	      0.00000000
      4.28000000	     -0.48799002	     -1.07483435	     -1.25097677	      0.31882020	      0.91139190	     -0.34084270	      6.10801715	      2.26299018	     -4.64168661	      4.99534695	      0.08718525	     17.57814135	    -12.03997144	    -17.69879410	     55.72232805	      0.97253809	    -11.55456224	      2.53180767	      0.99979438	      8.60713360	     -7.45649343	      0.00000000	      7.41166789	    -14.04736525	      0.00000000
      4.28666667	     -0.52799568	     -1.11072941	     -1.25037014	      0.32481425	      0.91173324	     -0.34021732	      5.66397305	      2.34008739	     -4.75061139	      4.89565994	      0.08544538	     18.21138187	    -12.00126524	    -17.82701336	     54.81830431	      0.95675990	    -11.56268582	      2.58485987	      1.13248046	      8.75523980	     -7.40120568	      0.00000000	      7.61948782	    -14.19983118	      0.00000000
      4.29333333	     -0.36456913	     -0.87018198	     -1.30987599	      0.33091432	      0.91240706	     -0.33959452	      4.91026169	      2.11194784	     -4.71483937	      4.60879998	      0.08043873	     18.46450258	    -11.59438843	    -18.06308336	     53.61484102	      0.93575550	    -11.80444902	      2.26729325	      1.32629708	      9.25114694	     -6.81866545	      0.00000000	      7.96636238	    -14.84100318	      0.00000000
      4.30000000	     -0.43263045	     -0.84631130	     -1.35218702	      0.33695018	      0.91262221	     -0.33900378	      4.46010089	      2.12581071	     -4.75971534	      4.41976511	      0.07713945	     19.01687731	    -11.44558650	    -18.22850414	     52.47064215	      0.91578547	    -11.78079481	      2.24826742	      1.49948067	      9.49376147	     -6.65976133	      0.00000000	      8.30506589	    -15.09232510	      0.00000000
      4.30666667	     -0.48415125	     -0.96997489	     -1.36708599	      0.34315306	      0.91268422	     -0.33839647	      4.03344108	      2.29885290	     -4.90696052	      4.37481348	      0.07635490	     19.52907172	    -11.49073554	    -18.40379510	     51.29874360	      0.89533198	    -11.70015262	      2.39873034	      1.60894625	      9.64408561	     -6.63012103	      0.00000000	      8.48913505	    -15.20215788	      0.00000000
      4.31333333	     -0.34059930	     -0.71668854	     -1.52123984	      0.34928306	      0.91316019	     -0.33767849	      3.33389150	      2.06880220	     -4.79771269	      4.13633658	      0.07219269	     19.62870180	    -11.07319227	    -18.81167537	     49.73658588	      0.86806718	    -11.93663112	      2.02196745	      1.87600720	     10.13765256	     -6.15113809	      0.00000000	      8.91509223	    -15.64979925	      0.00000000
      4.32000000	     -0.27206983	     -0.69375866	     -1.60874746	      0.35543095	      0.91337658	     -0.33700639	      2.76052715	      2.07941700	     -4.91060924	      4.01792889	      0.07012609	     19.85462376	    -10.90686507	    -19.07419206	     48.21935998	      0.84158659	    -12.05635543	      1.93592997	      2.12604203	     10.51411360	     -5.77405503	      0.00000000	      9.13687611	    -15.87137680	      0.00000000
      4.32666667	     -0.35962139	     -0.91964439	     -1.63623521	      0.36162388	      0.91318255	     -0.33646872	      2.39350238	      2.35969828	     -5.12452207	      3.99446197	      0.06971651	     20.30966327	    -11.04676186	    -19.30138298	     46.80756961	      0.81694620	    -11.96786395	      2.20874956	      2.19865574	     10.67275732	     -5.75547891	      0.00000000	      9.29542221	    -15.93371090	      0.00000000
      4.33333333	     -0.15953287	     -0.67365871	     -1.84151707	      0.36789573	      0.91353301	     -0.33584768	      1.67689151	      2.10623702	     -5.07513208	      3.87300587	      0.06759670	     20.17960564	    -10.60061059	    -19.77497071	     44.91045906	      0.78383538	    -12.23336513	      1.86745023	      2.55634443	     11.24021721	     -5.15925683	      0.00000000	      9.61357490	    -16.18422852	      0.00000000
      4.34000000	     -0.08584115	     -0.66989836	     -1.97297733	      0.37420496	      0.91353916	     -0.33512957	      1.12366642	      2.13291778	     -5.18092904	      3.83150061	      0.06687230	     20.24401675	    -10.45070319	    -20.14235994	     43.09160078	      0.75209031	    -12.32175532	      1.75374153	      2.78989241	     11.66247374	     -4.72558072	      0.00000000	      9.83866590	    -16.30475332	      0.00000000
      4.34666667	     -0.18824224	     -0.91870602	     -2.01556502	      0.38035738	      0.91315018	     -0.33482242	      0.78487450	      2.41788554	     -5.36740710	      3.81130690	      0.06651985	     20.60568825	    -10.54337972	    -20.34598369	     41.40192763	      0.72259995	    -12.25500231	      2.09566102	      2.92546051	     11.87177323	     -4.66633530	      0.00000000	     10.02100137	    -16.32745590	      0.00000000
      4.35333333	     -0.02782309	     -0.72972168	     -2.25993186	      0.38673196	      0.91324235	     -0.33424555	      0.16170898	      2.20707032	     -5.33298869	      3.80622082	      0.06643109	     20.38720994	    -10.14313923	    -20.88217811	     39.21883223	      0.68449775	    -12.44620532	      1.80570188	      3.25398587	     12.39957614	     -4.18361125	      0.00000000	     10.26560066	    -16.37747483	      0.00000000
      4.36000000	     -0.13146124	     -1.03484257	     -2.27590279	      0.39304760	      0.91269589	     -0.33403658	     -0.17998238	      2.55123488	     -5.51332184	      3.82047640	      0.06667989	     20.68170777	    -10.27504902	    -21.08398660	     37.39021504	      0.65258236	    -12.32780689	      2.21485668	      3.37369057	     12.61381964	     -4.12498571	      0.00000000	     10.44020182	    -16.35329912	      0.00000000
      4.36666667	      0.02476001	     -0.79913569	     -2.54769410	      0.39938803	      0.91268197	     -0.33344178	     -0.76659516	      2.27699924	     -5.50591310	      3.85495131	      0.06728159	     20.38307064	     -9.78731453	    -21.58936456	     34.99432870	      0.61076626	    -12.54040511	      1.80527801	      3.76928955	     13.16223271	     -3.65369285	      0.00000000	     10.63497078	    -16.25636637	      0.00000000
      4.37333333	      0.15183590	     -0.85720687	     -2.70294852	      0.40570383	      0.91245239	     -0.33314369	     -1.30647628	      2.31222448	     -5.64048967	      3.95523780	      0.06903192	     20.21030327	     -9.59621161	    -21.91436065	     32.73107764	      0.57126507	    -12.72992243	      1.84245120	      3.97412110	     13.65489553	     -3.11685628	      0.00000000	     10.71521933	    -16.10324540	      0.00000000
      4.38000000	      0.14476476	     -0.92866711	     -2.84099598	      0.41205337	      0.91196052	     -0.33295814	     -1.69251613	      2.36028252	     -5.76700791	      4.06766607	      0.07099417	     20.17854042	     -9.40343697	    -22.17694850	     30.45269197	      0.53149974	    -12.74835430	      1.91385560	      4.20298342	     14.06026565	     -2.80378721	      0.00000000	     10.85427289	    -15.86904176	      0.00000000
      4.38666667	     -0.01030340	     -1.34130339	     -2.89410257	      0.41843753	      0.91109142	     -0.33287423	     -1.95631582	      2.80478643	     -5.97206358	      4.13317868	      0.07213758	     20.43545378	     -9.62578620	    -22.32832631	     28.43357252	      0.49625946	    -12.58744981	      2.42068544	      4.27328353	     14.27602949	     -2.79156927	      0.00000000	     11.03409541	    -15.70794669	      0.00000000
      4.39333333	      0.08218744	     -1.11111021	     -3.13548143	      0.42467328	      0.91078868	     -0.33288784	     -2.36873682	      2.48158238	     -5.97150218	      4.37680081	      0.07638958	     20.08718258	     -8.97108086	    -22.44972486	     25.67145261	      0.44805137	    -12.77755091	      2.14831308	      4.68612513	     14.82033584	     -2.39496152	      0.00000000	     11.07190027	    -15.06851819	      0.00000000
      4.40000000	      0.05143515	     -1.26102149	     -3.27153265	      0.43104746	      0.91005137	     -0.33280562	     -2.70216361	      2.59650989	     -6.20678398	      4.54102763	      0.07925588	     20.04090560	     -8.84224201	    -22.50291730	     23.33219597	      0.40722364	    -12.80358153	      2.27479307	      4.91529511	     15.22781897	     -2.11055692	      0.00000000	     11.14882926	    -14.53832195	      0.00000000
      4.40666667	      0.12124989	     -1.30940455	     -3.41948406	      0.43750919	      0.90943946	     -0.33296894	     -3.10055583	      2.55969722	     -6.45112401	      4.83171510	      0.08432934	     19.80032944	     -8.54309378	    -22.51762712	     20.83567524	      0.36365113	    -12.90502857	      2.34498686	      5.11575399	     15.77460457	     -1.55847805	      0.00000000	     11.19024186	    -13.72744529	      0.00000000
      4.41333333	     -0.05859137	     -1.63609014	     -3.48948879	      0.44383479	      0.90836779	     -0.33327249	     -3.26254576	      2.86952879	     -6.60702165	      5.04013841	      0.08796701	     19.95204388	     -8.55395892	    -22.19445609	     18.58354752	      0.32434409	    -12.77269361	      2.78988562	      5.36509357	     16.05649205	     -1.48478831	      0.00000000	     11.30700666	    -13.11820776	      0.00000000
      4.42000000	      0.02329599	     -1.59075044	     -3.66862502	      0.45038905	      0.90764268	     -0.33343942	     -3.61781689	      2.69847236	     -7.01878375	      5.43291346	      0.09482223	     19.63036145	     -8.16076313	    -22.09163417	     16.05459298	      0.28020551	    -12.90339406	      2.69823123	      5.57649437	     16.70630047	     -0.81956482	      0.00000000	     11.30864602	    -11.79348842	      0.00000000
      4.42666667	     -0.08717770	     -1.75385681	     -3.79365129	      0.45686512	      0.90657920	     -0.33378116	     -3.78061734	      2.77972117	     -7.33221224	      5.80199320	      0.10126388	     19.61087092	     -8.00939608	    -21.70191238	     13.76259418	      0.24020258	    -12.83581087	      2.91232307	      5.78549434	     17.14805078	     -0.51999895	      0.00000000	     11.33319517	    -10.67502890	      0.00000000
      4.43333333	     -0.22167912	     -1.97436900	     -3.89414418	      0.46345416	      0.90541859	     -0.33415242	     -3.93467432	      2.92843001	     -7.63392525	      6.16430685	      0.10758745	     19.62037147	     -7.93584452	    -21.18683911	     11.57755837	      0.20206651	    -12.70877516	      3.18561287	      6.02295279	     17.53300194	     -0.36361819	      0.00000000	     11.33193471	     -9.59014275	      0.00000000
      4.44000000	     -0.27489243	     -2.10689665	     -4.04920421	      0.46997814	      0.90431008	     -0.33458663	     -4.11798317	      2.93929862	     -8.00208468	      6.61730581	      0.11549377	     19.52853612	     -7.79586282	    -20.66197165	      9.47777037	      0.16541830	    -12.74244718	      3.36117992	      6.18114428	     18.03656002	      0.04171921	      0.00000000	     11.29450801	     -8.19517933	      0.00000000
      4.44666667	     -0.35975467	     -2.31362999	     -4.17087844	      0.47664738	      0.90309997	     -0.33500585	     -4.28106419	      3.03493184	     -8.40653580	      7.08316651	      0.12362458	     19.49699761	     -7.77215121	    -20.03568473	      7.57062783	      0.13213238	    -12.69958888	      3.60661987	      6.39813791	     18.53412466	      0.47581040	      0.00000000	     11.30257428	     -6.83318546	      0.00000000
